<svg viewBox="0 0 20 20" height="20" width="20" xmlns="http://www.w3.org/2000/svg">
    <g>
        <path d="M20 17c0 1.65-1.35 3-3 3H3c-1.65 0-3-1.35-3-3V3c0-1.65 1.35-3 3-3h14c1.65 0 3 1.35 3 3v14z" fill="#FFFFFF"/>
        <path d="M7.342 11.655c.046 0 .093.002.141.005.272.195.884.818 1.008 1.033.152.378.093.779-.178 1.192-.24.366-.629.699-1.098.939a3.646 3.646 0 0 1-1.653.399c-.203 0-.404-.017-.601-.052l.04-.14c.26-.9.53-1.83.933-2.486.384-.624.805-.89 1.408-.89m0-.777C5.095 10.878 4.66 13.619 4 15.7c.519.207 1.049.3 1.563.3 2.331 0 4.349-1.899 3.63-3.623-.153-.367-1.251-1.449-1.504-1.478a3 3 0 0 0-.347-.021z"/>
        <path d="M15.231 4.778c.013.181-.055.657-.481 1.482-.473.915-1.23 1.958-2.133 2.935-.677.734-1.464 1.561-2.165 2.129-.718.582-1.147.733-1.389.75a1.662 1.662 0 0 1-.263-.21c-.151-.141-.298-.304-.417-.435l-.109-.119c.011-.089.089-.398.626-1.114.528-.703 1.354-1.609 2.155-2.478.826-.895 1.694-1.656 2.51-2.201 1.027-.686 1.534-.739 1.666-.739m0-.778c-1.039 0-2.952 1.253-4.737 3.188-2.176 2.359-3.5 3.891-2.801 4.631.252.267.874 1.026 1.293 1.035h.03c1.138 0 2.585-1.417 4.163-3.128 2.176-2.359 3.339-4.84 2.598-5.54-.134-.126-.319-.186-.546-.186z"/>
    </g>
</svg>